<?xml version="1.0" standalone="no"?>
<!DOCTYPE svg PUBLIC "-//W3C//DTD SVG 20010904//EN"
 "http://www.w3.org/TR/2001/REC-SVG-20010904/DTD/svg10.dtd">
<svg version="1.0" xmlns="http://www.w3.org/2000/svg"
 width="1000.000000pt" height="1000.000000pt" viewBox="0 0 1000.000000 1000.000000"
 preserveAspectRatio="xMidYMid meet">
<metadata>
Created by potrace 1.14, written by Peter Selinger 2001-2017
</metadata>
<g transform="translate(0.000000,1000.000000) scale(0.100000,-0.100000)"
fill="#000000" stroke="none">
<path d="M4790 9629 c-113 -49 -214 -94 -225 -98 -290 -125 -839 -417 -1175
-624 -708 -437 -1382 -997 -1855 -1543 -123 -141 -170 -197 -184 -218 -8 -12
-18 -23 -22 -26 -4 -3 -62 -79 -130 -170 -392 -521 -683 -1062 -899 -1665 -48
-136 -143 -460 -164 -565 -3 -14 -18 -88 -34 -165 -17 -77 -32 -158 -35 -180
-3 -22 -10 -69 -16 -105 -5 -36 -13 -92 -16 -125 -4 -33 -8 -71 -11 -85 -26
-159 -26 -842 1 -1012 2 -13 6 -49 10 -82 4 -32 8 -68 10 -80 2 -11 6 -37 9
-56 3 -19 11 -62 17 -95 6 -33 12 -69 14 -80 1 -11 8 -38 13 -60 6 -22 14 -56
17 -75 3 -19 11 -53 17 -75 6 -22 12 -42 13 -45 6 -31 22 -85 55 -187 131
-406 320 -769 555 -1063 87 -109 234 -262 321 -335 32 -28 61 -52 64 -55 23
-26 209 -154 285 -197 84 -48 235 -123 235 -117 0 4 6 2 13 -4 13 -11 194 -76
242 -87 17 -4 39 -9 50 -12 20 -5 83 -19 120 -27 169 -35 516 -41 685 -11 8 1
35 6 60 10 79 12 252 55 345 85 80 25 124 42 297 111 71 28 259 127 388 205
107 64 309 199 320 214 3 4 12 11 21 16 20 11 67 48 183 144 168 138 267 230
473 440 84 85 153 150 153 144 0 -13 318 -335 414 -419 38 -33 78 -69 90 -80
11 -11 57 -49 101 -85 44 -35 82 -67 85 -70 3 -3 31 -24 63 -48 31 -23 81 -60
110 -81 199 -148 523 -329 742 -416 85 -34 287 -103 318 -109 12 -2 61 -14
109 -25 49 -11 103 -23 120 -26 18 -2 47 -6 63 -9 142 -21 358 -27 490 -15
269 25 476 82 714 195 318 153 618 403 852 709 58 75 189 270 189 280 0 4 8
19 19 33 51 73 244 480 256 542 2 8 12 38 23 65 11 28 40 122 65 210 44 155
65 244 92 385 3 14 7 36 10 50 3 14 8 45 11 70 3 25 8 53 10 64 2 10 6 44 9
75 4 31 8 66 10 79 27 169 27 790 0 1017 -3 22 -7 60 -10 85 -3 25 -8 59 -10
75 -4 28 -10 66 -20 140 -3 17 -7 41 -10 55 -3 14 -8 41 -11 60 -18 108 -75
348 -116 490 -195 685 -522 1341 -966 1940 -677 913 -1605 1687 -2772 2312
-99 53 -487 248 -493 248 -3 0 -45 19 -94 41 -144 68 -416 186 -468 204 -5 2
-102 -37 -215 -86z"/>
<path d="M6530 15 c-23 -13 -21 -14 45 -14 67 1 69 1 40 14 -38 18 -54 18 -85
0z"/>
</g>
</svg>
